<svg xmlns="http://www.w3.org/2000/svg" width="100" height="100" viewBox="0 0 12 12" fill="none">
    <circle cx="6" cy="6" r="6" fill="#FFC800"/>
    <path
            d="M6.1279 8.57138C5.72614 8.57138 5.37545 8.46516 5.07447 8.25567C4.77349 8.04618 4.55447 7.76587 4.41608 7.41918C4.27902 7.07248 4.24946 6.69776 4.33008 6.29501L5.1215 2.24386C5.14434 2.09928 5.21018 1.97536 5.31901 1.87061C5.42785 1.76734 5.56894 1.71423 5.74092 1.71423C5.8726 1.71423 5.99084 1.75259 6.09296 1.82783C6.19643 1.90307 6.27032 2.00044 6.31601 2.11994C6.36169 2.23944 6.36975 2.36484 6.34154 2.49761L6.06609 3.90503H6.3926L5.99756 4.09387C6.06609 3.98027 6.15746 3.87996 6.27302 3.79144C6.38723 3.70292 6.51353 3.63801 6.65192 3.59375C6.78898 3.54949 6.93544 3.52736 7.08996 3.52736C7.41109 3.52736 7.69461 3.63654 7.94184 3.8534C8.18773 4.07027 8.36778 4.35795 8.47931 4.71792C8.59083 5.07642 8.60158 5.45114 8.50886 5.84209L8.30194 6.86152C8.2267 7.20083 8.08696 7.50031 7.88003 7.75849C7.67311 8.01667 7.4205 8.21583 7.11818 8.35746C6.8172 8.49909 6.48665 8.5699 6.12521 8.5699L6.1279 8.57138ZM6.2139 7.42803C6.35767 7.42803 6.48935 7.39557 6.60893 7.32919C6.72852 7.2628 6.83332 7.16985 6.92335 7.05035C7.01203 6.93085 7.07115 6.79218 7.09936 6.63432L7.28883 5.64293C7.32376 5.45999 7.31569 5.29476 7.26732 5.14723C7.21895 4.9997 7.13967 4.88168 7.03084 4.79316C6.922 4.70464 6.79032 4.66038 6.6358 4.66038C6.49875 4.66038 6.36975 4.69432 6.24882 4.76365C6.12789 4.83299 6.02578 4.92741 5.93978 5.04691C5.85379 5.16641 5.79602 5.30508 5.7678 5.46294L5.57834 6.45434C5.5434 6.63137 5.54878 6.79365 5.59178 6.94561C5.63478 7.09609 5.71136 7.21411 5.8202 7.29968C5.92903 7.38524 6.06071 7.42655 6.21523 7.42655L6.2139 7.42803Z"
            fill="#0F121D"/>
    <path
            d="M3.49136 8.58371C3.83845 8.95818 4.23307 9.23426 4.66081 9.41782C5.0871 9.60138 5.5422 9.69096 5.99875 9.69243C6.45529 9.69243 6.9104 9.60285 7.3367 9.41782C7.76444 9.23426 8.15905 8.95818 8.50614 8.58371C8.52054 8.56756 8.54358 8.56756 8.55943 8.58225C8.57095 8.59253 8.57383 8.60868 8.56951 8.6219C8.39668 9.12412 8.01791 9.55586 7.55704 9.84515C7.09474 10.1359 6.54602 10.2857 6.00019 10.2857C5.45435 10.2857 4.90564 10.1359 4.44333 9.84515C3.98247 9.55733 3.6037 9.12559 3.43088 8.6219C3.42368 8.60281 3.43376 8.58078 3.45392 8.57344C3.46832 8.56903 3.48417 8.57344 3.49281 8.58371H3.49136Z"
            fill="#0F121D"/>
</svg>